<mxfile host="app.diagrams.net" modified="2023-10-05T19:10:00.915Z" agent="Mozilla/5.0 (Windows NT 10.0; Win64; x64) AppleWebKit/537.36 (KHTML, like Gecko) Chrome/117.0.0.0 Safari/537.36" etag="q3xUK_kN7bgCDExxOGah" version="22.0.2" type="google">
  <diagram name="Page-1" id="hoBkTj-Ie64rvC371DIv">
    <mxGraphModel dx="1290" dy="542" grid="1" gridSize="10" guides="1" tooltips="1" connect="1" arrows="1" fold="1" page="1" pageScale="1" pageWidth="850" pageHeight="1100" math="0" shadow="0">
      <root>
        <mxCell id="0" />
        <mxCell id="1" parent="0" />
        <mxCell id="xdjAXcvyHdjhcUp3rwF9-1" value="Admin" style="rounded=0;whiteSpace=wrap;html=1;" parent="1" vertex="1">
          <mxGeometry x="30" y="235" width="100" height="45" as="geometry" />
        </mxCell>
        <mxCell id="xdjAXcvyHdjhcUp3rwF9-2" value="Login to System" style="shape=ellipse;html=1;dashed=0;whiteSpace=wrap;perimeter=ellipsePerimeter;" parent="1" vertex="1">
          <mxGeometry x="200" y="222.5" width="80" height="70" as="geometry" />
        </mxCell>
        <mxCell id="xdjAXcvyHdjhcUp3rwF9-3" value="Check Credentials" style="shape=ellipse;html=1;dashed=0;whiteSpace=wrap;perimeter=ellipsePerimeter;" parent="1" vertex="1">
          <mxGeometry x="200" y="350" width="80" height="70" as="geometry" />
        </mxCell>
        <mxCell id="xdjAXcvyHdjhcUp3rwF9-4" value="Check Roles of Access" style="shape=ellipse;html=1;dashed=0;whiteSpace=wrap;perimeter=ellipsePerimeter;" parent="1" vertex="1">
          <mxGeometry x="360" y="222.5" width="80" height="70" as="geometry" />
        </mxCell>
        <mxCell id="xdjAXcvyHdjhcUp3rwF9-5" value="Manage Modules" style="shape=ellipse;html=1;dashed=0;whiteSpace=wrap;perimeter=ellipsePerimeter;" parent="1" vertex="1">
          <mxGeometry x="360" y="350" width="80" height="70" as="geometry" />
        </mxCell>
        <mxCell id="xdjAXcvyHdjhcUp3rwF9-6" value="Manage Car Details" style="html=1;dashed=0;whiteSpace=wrap;" parent="1" vertex="1">
          <mxGeometry x="560" y="160" width="170" height="50" as="geometry" />
        </mxCell>
        <mxCell id="xdjAXcvyHdjhcUp3rwF9-7" value="Manage Payment Details" style="html=1;dashed=0;whiteSpace=wrap;" parent="1" vertex="1">
          <mxGeometry x="550" y="580" width="170" height="50" as="geometry" />
        </mxCell>
        <mxCell id="xdjAXcvyHdjhcUp3rwF9-8" value="Manage Admin Details" style="html=1;dashed=0;whiteSpace=wrap;" parent="1" vertex="1">
          <mxGeometry x="590" y="500" width="170" height="50" as="geometry" />
        </mxCell>
        <mxCell id="xdjAXcvyHdjhcUp3rwF9-9" value="Manage Claim Details" style="html=1;dashed=0;whiteSpace=wrap;" parent="1" vertex="1">
          <mxGeometry x="650" y="410" width="170" height="50" as="geometry" />
        </mxCell>
        <mxCell id="xdjAXcvyHdjhcUp3rwF9-10" value="Manage Policy Details" style="html=1;dashed=0;whiteSpace=wrap;" parent="1" vertex="1">
          <mxGeometry x="650" y="330" width="170" height="50" as="geometry" />
        </mxCell>
        <mxCell id="xdjAXcvyHdjhcUp3rwF9-11" value="Manage Policy Holder Details" style="html=1;dashed=0;whiteSpace=wrap;" parent="1" vertex="1">
          <mxGeometry x="590" y="242.5" width="170" height="50" as="geometry" />
        </mxCell>
        <mxCell id="xdjAXcvyHdjhcUp3rwF9-14" value="" style="endArrow=classic;html=1;rounded=0;entryX=0;entryY=0.5;entryDx=0;entryDy=0;exitX=1;exitY=0.5;exitDx=0;exitDy=0;" parent="1" source="xdjAXcvyHdjhcUp3rwF9-1" target="xdjAXcvyHdjhcUp3rwF9-2" edge="1">
          <mxGeometry width="50" height="50" relative="1" as="geometry">
            <mxPoint x="130" y="270" as="sourcePoint" />
            <mxPoint x="180" y="220" as="targetPoint" />
          </mxGeometry>
        </mxCell>
        <mxCell id="xdjAXcvyHdjhcUp3rwF9-15" value="" style="endArrow=classic;html=1;rounded=0;entryX=0.5;entryY=0;entryDx=0;entryDy=0;exitX=0.5;exitY=1;exitDx=0;exitDy=0;" parent="1" source="xdjAXcvyHdjhcUp3rwF9-2" target="xdjAXcvyHdjhcUp3rwF9-3" edge="1">
          <mxGeometry width="50" height="50" relative="1" as="geometry">
            <mxPoint x="220" y="350" as="sourcePoint" />
            <mxPoint x="270" y="300" as="targetPoint" />
          </mxGeometry>
        </mxCell>
        <mxCell id="xdjAXcvyHdjhcUp3rwF9-16" value="" style="endArrow=classic;html=1;rounded=0;entryX=0;entryY=1;entryDx=0;entryDy=0;" parent="1" target="xdjAXcvyHdjhcUp3rwF9-4" edge="1">
          <mxGeometry width="50" height="50" relative="1" as="geometry">
            <mxPoint x="280" y="380" as="sourcePoint" />
            <mxPoint x="330" y="330" as="targetPoint" />
          </mxGeometry>
        </mxCell>
        <mxCell id="xdjAXcvyHdjhcUp3rwF9-17" value="" style="endArrow=classic;html=1;rounded=0;exitX=0.5;exitY=1;exitDx=0;exitDy=0;entryX=0.5;entryY=0;entryDx=0;entryDy=0;" parent="1" source="xdjAXcvyHdjhcUp3rwF9-4" target="xdjAXcvyHdjhcUp3rwF9-5" edge="1">
          <mxGeometry width="50" height="50" relative="1" as="geometry">
            <mxPoint x="430" y="490" as="sourcePoint" />
            <mxPoint x="480" y="440" as="targetPoint" />
          </mxGeometry>
        </mxCell>
        <mxCell id="xdjAXcvyHdjhcUp3rwF9-18" value="" style="endArrow=classic;html=1;rounded=0;entryX=0;entryY=0.5;entryDx=0;entryDy=0;exitX=1;exitY=0;exitDx=0;exitDy=0;" parent="1" source="xdjAXcvyHdjhcUp3rwF9-5" target="xdjAXcvyHdjhcUp3rwF9-6" edge="1">
          <mxGeometry width="50" height="50" relative="1" as="geometry">
            <mxPoint x="430" y="490" as="sourcePoint" />
            <mxPoint x="480" y="440" as="targetPoint" />
          </mxGeometry>
        </mxCell>
        <mxCell id="xdjAXcvyHdjhcUp3rwF9-21" value="" style="endArrow=classic;html=1;rounded=0;entryX=0;entryY=0.5;entryDx=0;entryDy=0;exitX=0.972;exitY=0.272;exitDx=0;exitDy=0;exitPerimeter=0;" parent="1" source="xdjAXcvyHdjhcUp3rwF9-5" target="xdjAXcvyHdjhcUp3rwF9-11" edge="1">
          <mxGeometry width="50" height="50" relative="1" as="geometry">
            <mxPoint x="430" y="370" as="sourcePoint" />
            <mxPoint x="480" y="380" as="targetPoint" />
          </mxGeometry>
        </mxCell>
        <mxCell id="xdjAXcvyHdjhcUp3rwF9-22" value="" style="endArrow=classic;html=1;rounded=0;entryX=0;entryY=0.5;entryDx=0;entryDy=0;exitX=1;exitY=0.5;exitDx=0;exitDy=0;" parent="1" source="xdjAXcvyHdjhcUp3rwF9-5" target="xdjAXcvyHdjhcUp3rwF9-10" edge="1">
          <mxGeometry width="50" height="50" relative="1" as="geometry">
            <mxPoint x="290" y="380" as="sourcePoint" />
            <mxPoint x="340" y="330" as="targetPoint" />
          </mxGeometry>
        </mxCell>
        <mxCell id="xdjAXcvyHdjhcUp3rwF9-23" value="" style="endArrow=classic;html=1;rounded=0;entryX=0;entryY=0.5;entryDx=0;entryDy=0;" parent="1" target="xdjAXcvyHdjhcUp3rwF9-9" edge="1">
          <mxGeometry width="50" height="50" relative="1" as="geometry">
            <mxPoint x="440" y="400" as="sourcePoint" />
            <mxPoint x="480" y="380" as="targetPoint" />
          </mxGeometry>
        </mxCell>
        <mxCell id="xdjAXcvyHdjhcUp3rwF9-24" value="" style="endArrow=classic;html=1;rounded=0;exitX=1;exitY=1;exitDx=0;exitDy=0;entryX=0;entryY=0.5;entryDx=0;entryDy=0;" parent="1" source="xdjAXcvyHdjhcUp3rwF9-5" target="xdjAXcvyHdjhcUp3rwF9-8" edge="1">
          <mxGeometry width="50" height="50" relative="1" as="geometry">
            <mxPoint x="430" y="430" as="sourcePoint" />
            <mxPoint x="480" y="380" as="targetPoint" />
          </mxGeometry>
        </mxCell>
        <mxCell id="xdjAXcvyHdjhcUp3rwF9-25" value="" style="endArrow=classic;html=1;rounded=0;entryX=0;entryY=0.5;entryDx=0;entryDy=0;exitX=0.737;exitY=0.958;exitDx=0;exitDy=0;exitPerimeter=0;" parent="1" source="xdjAXcvyHdjhcUp3rwF9-5" target="xdjAXcvyHdjhcUp3rwF9-7" edge="1">
          <mxGeometry width="50" height="50" relative="1" as="geometry">
            <mxPoint x="430" y="430" as="sourcePoint" />
            <mxPoint x="480" y="380" as="targetPoint" />
          </mxGeometry>
        </mxCell>
        <mxCell id="xdjAXcvyHdjhcUp3rwF9-26" value="&lt;font style=&quot;font-size: 16px;&quot;&gt;&lt;b&gt;&lt;u&gt;2nd Level DFD of Car Insurance Management System&lt;/u&gt;&lt;/b&gt;&lt;/font&gt;" style="text;strokeColor=none;align=center;fillColor=none;html=1;verticalAlign=middle;whiteSpace=wrap;rounded=0;" parent="1" vertex="1">
          <mxGeometry x="180" y="740" width="420" height="30" as="geometry" />
        </mxCell>
      </root>
    </mxGraphModel>
  </diagram>
</mxfile>
